<svg width="10" height="12" viewBox="0 0 10 12" fill="none" xmlns="http://www.w3.org/2000/svg">
<path fill-rule="evenodd" clip-rule="evenodd" d="M5.54857 0.47144C5.51191 0.205203 5.28031 0 5.00007 0C4.69436 0 4.44653 0.244208 4.44653 0.545455V10.1333L0.945772 6.6698L0.883799 6.61686C0.667429 6.45797 0.359869 6.47495 0.162941 6.6682C-0.0536792 6.88077 -0.0544048 7.22613 0.16132 7.43959L4.6003 11.8318C4.62573 11.858 4.65378 11.8816 4.68403 11.9024C4.9002 12.0511 5.20005 12.0301 5.39263 11.8396L9.83871 7.43955L9.89218 7.37826C10.0525 7.16439 10.034 6.8614 9.83703 6.66817C9.62039 6.45561 9.2699 6.45636 9.0542 6.66983L5.55362 10.1342V0.545455L5.54857 0.47144Z" fill="#ED2C35"/>
</svg>
