<svg width="16" height="16" viewBox="0 0 16 16" fill="none" xmlns="http://www.w3.org/2000/svg">
<path d="M4.512 3.59598H1.952C0.88 3.59598 0 4.44955 0 5.52441V13.5385C0 14.5975 0.88 15.4669 1.952 15.4669H14.048C15.12 15.4669 16 14.5975 16 13.5385V5.52441C16 4.46536 15.12 3.59598 14.048 3.59598H11.488V2.99532C11.488 1.93627 10.608 1.06689 9.536 1.06689H6.464C5.392 1.06689 4.512 1.93627 4.512 2.99532V3.59598ZM14.928 13.5227C14.928 13.9969 14.528 14.392 14.048 14.392H1.952C1.472 14.392 1.072 13.9969 1.072 13.5227V8.43287H14.928V13.5227ZM5.584 2.99532C5.584 2.52112 5.984 2.12595 6.464 2.12595H9.52C10 2.12595 10.4 2.52112 10.4 2.99532V3.59598H5.584V2.99532ZM14.048 4.65504C14.528 4.65504 14.928 5.05021 14.928 5.52441V7.38962H1.072V5.52441C1.072 5.05021 1.472 4.65504 1.952 4.65504H14.048Z" fill="#DADEE2"/>
</svg>
